<svg width="1437" height="361" viewBox="0 0 1437 361" fill="none" xmlns="http://www.w3.org/2000/svg">
<path d="M1031.78 128.532C1297.89 62.3993 1346.94 98.4767 1436.34 147.359L1436.34 389.859L-5.16189 389.859C-5.16192 243.859 -4.67452 99.323 -5.16193 42.3588C288.838 -97.1412 324.68 154.33 490.872 225.859C657.064 297.389 699.138 211.197 1031.78 128.532Z" fill="#5791E7"/>
<path d="M1031.78 128.532C1297.89 62.3993 1346.94 98.4767 1436.34 147.359L1436.34 389.859L-5.16189 389.859C-5.16192 243.859 -4.67452 99.323 -5.16193 42.3588C288.838 -97.1412 324.68 154.33 490.872 225.859C657.064 297.389 699.138 211.197 1031.78 128.532Z" fill="url(#paint0_linear)"/>
<defs>
<linearGradient id="paint0_linear" x1="377.5" y1="493" x2="538.72" y2="-91.2997" gradientUnits="userSpaceOnUse">
<stop stop-color="#AEFABE" stop-opacity="0.78"/>
<stop offset="1" stop-color="white" stop-opacity="0"/>
</linearGradient>
</defs>
</svg>
