<svg width="1440" height="440" viewBox="0 0 1440 440" fill="none" xmlns="http://www.w3.org/2000/svg">
<path d="M1057 45C1253.93 220.715 1371.83 -57.8612 1446 12V439.5L-0.499978 439.5L-0.5 294.5C-0.499948 268.78 103.26 173.594 213 165.5C416 112.113 487 141 605 215C735.743 296.991 876 -116.5 1057 45Z" fill="#5791E7"/>
<path d="M1057 45C1253.93 220.715 1371.83 -57.8612 1446 12V439.5L-0.499978 439.5L-0.5 294.5C-0.499948 268.78 103.26 173.594 213 165.5C416 112.113 487 141 605 215C735.743 296.991 876 -116.5 1057 45Z" fill="url(#paint0_linear)"/>
<path d="M1057 45C1253.93 220.715 1371.83 -57.8612 1446 12V439.5L-0.499978 439.5L-0.5 294.5C-0.499948 268.78 103.26 173.594 213 165.5C416 112.113 487 141 605 215C735.743 296.991 876 -116.5 1057 45Z" fill="#3C1654" fill-opacity="0.08"/>
<defs>
<linearGradient id="paint0_linear" x1="958.5" y1="746.5" x2="621.089" y2="-153.633" gradientUnits="userSpaceOnUse">
<stop stop-color="#AEFABE" stop-opacity="0.78"/>
<stop offset="1" stop-color="white" stop-opacity="0"/>
</linearGradient>
</defs>
</svg>
